<svg width="715" height="706" xmlns="http://www.w3.org/2000/svg" xmlns:xlink="http://www.w3.org/1999/xlink" overflow="hidden"><defs><clipPath id="clip0"><rect x="1842" y="256" width="715" height="706"/></clipPath></defs><g clip-path="url(#clip0)" transform="translate(-1842 -256)"><path d="M1975.98 344.685C2071.26 317.063 2170.9 371.914 2198.52 467.199 2226.14 562.484 2171.29 662.121 2076.01 689.743 1980.72 717.366 1881.09 662.515 1853.46 567.23 1825.84 471.945 1880.69 372.308 1975.98 344.685ZM1986.06 379.471C1909.99 401.524 1866.2 481.072 1888.25 557.146 1910.3 633.219 1989.85 677.011 2065.92 654.958 2142 632.905 2185.79 553.357 2163.74 477.283 2141.68 401.209 2062.13 357.417 1986.06 379.471Z" fill="#4F47E4" fill-rule="evenodd" fill-opacity="0.952941"/><path d="M2014.91 389.966C2092.96 367.34 2174.57 412.27 2197.2 490.32 2219.82 568.369 2174.89 649.983 2096.84 672.61 2018.79 695.236 1937.18 650.306 1914.55 572.257 1891.93 494.207 1936.86 412.593 2014.91 389.966ZM2023.17 418.46C1960.85 436.524 1924.98 501.683 1943.05 563.997 1961.11 626.31 2026.27 662.181 2088.58 644.116 2150.9 626.052 2186.77 560.893 2168.7 498.58 2150.64 436.266 2085.48 400.395 2023.17 418.46Z" fill="#4F47E4" fill-rule="evenodd" fill-opacity="0.803922"/><path d="M2049 438.187C2109.7 420.592 2173.16 455.53 2190.75 516.222 2208.35 576.915 2173.41 640.379 2112.72 657.973 2052.03 675.568 1988.56 640.63 1970.97 579.937 1953.37 519.245 1988.31 455.781 2049 438.187ZM2055.43 460.343C2006.97 474.39 1979.08 525.059 1993.12 573.514 2007.17 621.97 2057.84 649.863 2106.29 635.816 2154.75 621.769 2182.64 571.101 2168.6 522.645 2154.55 474.19 2103.88 446.296 2055.43 460.343Z" fill="#4F47E4" fill-rule="evenodd" fill-opacity="0.701961"/><path d="M2553.03 425.8C2561.2 524.671 2487.67 611.444 2388.8 619.613 2289.93 627.781 2203.15 554.252 2194.99 455.381 2186.82 356.51 2260.35 269.737 2359.22 261.568 2458.09 253.399 2544.86 326.928 2553.03 425.8ZM2516.94 428.782C2510.41 349.845 2441.14 291.141 2362.2 297.663 2283.26 304.184 2224.56 373.462 2231.08 452.399 2237.6 531.336 2306.88 590.04 2385.82 583.518 2464.75 576.997 2523.46 507.719 2516.94 428.782Z" fill="#4F47E4" fill-rule="evenodd" fill-opacity="0.952941"/><path d="M2500.93 454.972C2507.62 535.959 2447.39 607.036 2366.4 613.727 2285.41 620.418 2214.34 560.189 2207.64 479.202 2200.95 398.215 2261.18 327.137 2342.17 320.446 2423.16 313.755 2494.23 373.984 2500.93 454.972ZM2471.36 457.414C2466.02 392.756 2409.27 344.67 2344.61 350.012 2279.95 355.354 2231.87 412.101 2237.21 476.759 2242.55 541.418 2299.3 589.504 2363.96 584.162 2428.62 578.82 2476.7 522.073 2471.36 457.414Z" fill="#4F47E4" fill-rule="evenodd" fill-opacity="0.803922"/><path d="M2446.9 478.823C2452.1 541.8 2405.27 597.07 2342.29 602.273 2279.31 607.476 2224.04 560.642 2218.84 497.665 2213.64 434.688 2260.47 379.418 2323.45 374.215 2386.43 369.012 2441.7 415.846 2446.9 478.823ZM2423.91 480.722C2419.75 430.443 2375.63 393.051 2325.35 397.205 2275.07 401.359 2237.68 445.486 2241.83 495.765 2245.99 546.045 2290.11 583.437 2340.39 579.283 2390.67 575.129 2428.06 531.002 2423.91 480.722Z" fill="#4F47E4" fill-rule="evenodd" fill-opacity="0.701961"/><path d="M2173.9 931.454C2089.62 879.115 2063.73 768.364 2116.06 684.085 2168.4 599.807 2279.15 573.914 2363.43 626.253 2447.71 678.592 2473.6 789.343 2421.26 873.622 2368.93 957.9 2258.18 983.793 2173.9 931.454ZM2193 900.686C2260.29 942.473 2348.71 921.801 2390.5 854.514 2432.28 787.228 2411.61 698.807 2344.33 657.021 2277.04 615.234 2188.62 635.906 2146.83 703.193 2105.05 770.479 2125.72 858.9 2193 900.686Z" fill="#4F47E4" fill-rule="evenodd" fill-opacity="0.952941"/><path d="M2181.51 872.225C2112.47 829.353 2091.26 738.636 2134.14 669.601 2177.01 600.567 2267.72 579.358 2336.76 622.23 2405.79 665.102 2427 755.82 2384.13 824.854 2341.26 893.888 2250.54 915.097 2181.51 872.225ZM2197.16 847.023C2252.27 881.251 2324.7 864.318 2358.93 809.203 2393.16 754.087 2376.22 681.66 2321.11 647.432 2265.99 613.204 2193.57 630.137 2159.34 685.253 2125.11 740.368 2142.04 812.795 2197.16 847.023Z" fill="#4F47E4" fill-rule="evenodd" fill-opacity="0.803922"/><path d="M2194.53 814.623C2140.85 781.285 2124.36 710.742 2157.7 657.06 2191.03 603.379 2261.58 586.886 2315.26 620.224 2368.94 653.562 2385.43 724.105 2352.1 777.787 2318.76 831.469 2248.22 847.961 2194.53 814.623ZM2206.7 795.026C2249.56 821.642 2305.88 808.475 2332.5 765.616 2359.11 722.758 2345.95 666.438 2303.09 639.822 2260.23 613.205 2203.91 626.372 2177.29 669.231 2150.68 712.089 2163.85 768.41 2206.7 795.026Z" fill="#4F47E4" fill-rule="evenodd" fill-opacity="0.701961"/></g></svg>