<svg width="183" height="114" xmlns="http://www.w3.org/2000/svg" xmlns:xlink="http://www.w3.org/1999/xlink" xml:space="preserve" overflow="hidden"><defs><clipPath id="clip0"><rect x="381" y="192" width="183" height="114"/></clipPath><clipPath id="clip1"><rect x="382" y="193" width="181" height="113"/></clipPath><clipPath id="clip2"><rect x="382" y="193" width="181" height="113"/></clipPath><clipPath id="clip3"><rect x="382" y="193" width="597" height="133"/></clipPath></defs><g clip-path="url(#clip0)" transform="translate(-381 -192)"><g clip-path="url(#clip1)"><g clip-path="url(#clip2)"><g clip-path="url(#clip3)"><path d="M287.946 45.5874C279.159 45.5874 273.281 48.5164 267.923 55.9607 267.55 56.4803 266.826 56.599 266.306 56.2258 266.305 56.2252 266.305 56.2246 266.304 56.224 266.159 56.1202 266.04 55.9852 265.955 55.8291 261.716 47.9701 254.765 45.719 248.262 45.719 243.188 45.719 236.474 47.1671 232.353 53.0251 231.965 54.0216 231.649 55.0444 231.406 56.0858L231.188 56.8888C231.106 57.1854 230.838 57.3921 230.53 57.3956L230.372 57.3956C230.004 57.2899 229.783 56.913 229.872 56.5399L230.096 55.7567 230.096 55.7106C230.772 53.4387 230.905 51.0399 230.484 48.7073L230.214 47.1934 213.97 47.1934 213.97 110.816 232.525 110.816 232.525 76.7732C232.525 69.5329 236.645 62.7337 243.991 62.7337 251.606 62.7337 254.95 68.2692 254.95 76.6481L254.95 110.783 273.248 110.783 273.248 76.6481C273.248 69.4079 277.618 63.1154 284.97 63.1154 292.441 63.1154 294.64 68.3811 294.64 76.3914L294.64 110.783 313.339 110.783 313.339 76.0031C313.339 52.2945 301.222 45.5874 287.946 45.5874Z" fill="#00FFAA" fill-rule="nonzero" fill-opacity="1" transform="matrix(1.00123 0 0 1 370.843 188.116)"/><path d="M375.467 47.1342 375.415 47.7924C375.205 50.5133 375.513 53.2494 376.323 55.8554 376.428 56.224 376.52 56.5663 376.58 56.8822 376.68 57.2317 376.477 57.5961 376.128 57.6959 376.105 57.7023 376.083 57.7076 376.06 57.7115L375.902 57.7115C375.578 57.7163 375.299 57.4845 375.243 57.1652 374.781 55.0634 373.796 53.112 372.38 51.4915 372.236 51.3204 372.084 51.1558 371.933 50.9913 368.03 47.5686 362.204 45.7256 356.07 45.7256 337.245 45.4689 322.692 57.8432 322.692 78.9716 322.692 99.975 336.515 112.343 355.55 112.211 361 112.099 368.714 110.092 373.407 105.043 374.388 103.754 375.118 102.291 375.559 100.732 375.735 100.389 376.155 100.253 376.498 100.429 376.75 100.558 376.899 100.825 376.876 101.107L376.803 101.39C375.961 104.453 375.737 107.652 376.145 110.802L392.897 110.802 392.897 47.1342ZM357.946 95.7164C348.665 95.7164 341.194 89.5358 341.194 78.965 341.194 68.3942 348.665 62.082 357.946 62.082 369.023 62.082 374.822 70.4544 374.822 79.6101 374.822 87.6007 368.378 95.7164 357.946 95.7164Z" fill="#00FFAA" fill-rule="nonzero" fill-opacity="1" transform="matrix(1.00123 0 0 1 370.843 188.116)"/><path d="M441.874 45.719C436.009 45.719 431.086 46.7919 427.176 51.1426 425.828 52.6619 424.948 54.5385 424.642 56.5465 424.611 56.7315 424.594 56.9185 424.589 57.106 424.562 57.4904 424.229 57.7803 423.845 57.7536 423.557 57.7336 423.312 57.5391 423.227 57.264 423.22 57.2203 423.22 57.176 423.227 57.1323 423.241 56.6335 423.305 56.1374 423.418 55.6514 423.997 53.0181 424.03 50.2943 423.516 47.6476L423.451 47.2921 406.173 47.2921 406.173 110.809 424.727 110.809 424.727 77.6684C424.727 68.1507 431.566 62.9772 439.55 62.9772 443.196 62.9215 446.761 64.0536 449.706 66.2024L457.453 51.5178C452.958 47.5159 447.929 45.719 441.874 45.719Z" fill="#00FFAA" fill-rule="nonzero" fill-opacity="1" transform="matrix(1.00123 0 0 1 370.843 188.116)"/><path d="M510.801 47.2658 510.604 48.6744C510.236 51.4053 510.372 54.1805 511.005 56.8625 511.09 57.2347 510.856 57.6049 510.484 57.6892 510.48 57.6901 510.476 57.691 510.472 57.6918L510.327 57.6918C510.003 57.6965 509.724 57.4648 509.669 57.1455 509.267 55.3351 508.331 53.6867 506.984 52.413 501.606 47.3382 495.36 46.0679 488.554 46.0679 469.867 46.0679 457.105 59.232 457.105 79.0638 457.105 99.6854 470.124 112.178 488.83 112.178 494.82 112.178 501.751 110.322 507.016 105.135 508.292 103.884 509.13 102.254 509.406 100.488 509.44 100.126 509.761 99.861 510.123 99.8954 510.141 99.8971 510.158 99.8995 510.176 99.9026 510.557 99.9557 510.824 100.308 510.771 100.69 510.77 100.695 510.769 100.7 510.768 100.706 510.716 101.068 510.637 101.449 510.544 101.871 509.322 107.235 508.735 112.725 508.794 118.227L508.794 130.819 527.474 137.124 527.474 47.2658ZM491.522 95.4399C482.966 95.5189 476.048 88.384 475.765 79.8141 475.449 70.2965 481.149 62.7007 491.345 62.7007 499.723 62.7007 508.458 66.9462 508.458 79.0572 508.458 89.6872 499.901 95.3478 491.476 95.4202Z" fill="#00FFAA" fill-rule="nonzero" fill-opacity="1" transform="matrix(1.00123 0 0 1 370.843 188.116)"/><path d="M571.981 45.719C550.86 45.719 537.189 59.8968 537.189 79.0901 537.189 98.2834 550.465 112.204 571.981 112.204 593.636 112.204 606.866 98.29 606.866 79.0901 606.866 59.8902 593.288 45.719 571.981 45.719ZM571.981 95.7427C560.792 95.7427 556.007 87.107 556.007 79.1164 556.007 71.1258 560.917 62.3387 571.981 62.3387 583.171 62.3387 588.094 71.106 588.094 79.0901 588.094 87.4691 583.316 95.7164 571.981 95.7164Z" fill="#00FFAA" fill-rule="nonzero" fill-opacity="1" transform="matrix(1.00123 0 0 1 370.843 188.116)"/><path d="M172.411 56.3293C168.131 54.3332 164.749 50.8128 162.926 46.4562 159.179 37.6794 151.341 31.3175 141.982 29.4547 139.998 29.0939 138.243 27.9506 137.111 26.2822L130.529 16.3762 124.75 16.3762 124.75 18.0349C124.759 19.5616 123.528 20.8065 122.002 20.8154 121.349 20.8193 120.716 20.592 120.215 20.174 94.2815-2.0931 63.0628 3.20547 44.475 16.205 31.3006 25.1919 20.0646 36.7323 11.433 50.1422 10.8889 50.9938 11.1382 52.1252 11.9898 52.6693 12.4385 52.956 12.9897 53.033 13.4998 52.8803L18.6141 51.3401C19.0929 51.1905 19.6023 51.4575 19.7519 51.9363 19.7522 51.9372 19.7525 51.9381 19.7528 51.9391 19.7989 52.0937 19.7989 52.2584 19.7528 52.413 15.4349 73.5282 20.411 93.8405 38.1826 111.388L63.1878 111.388C62.444 89.0553 97.6383 89.0553 96.8946 111.388L121.906 111.388C124.427 109.046 126.75 106.498 128.851 103.773 131.401 100.558 136.076 100.019 139.291 102.57 139.556 102.78 139.806 103.008 140.04 103.253 156.423 119.754 189.702 109.4 189.294 82.6378 189.328 71.3116 182.721 61.0166 172.411 56.3293ZM139.132 55.0129C136.325 55.0165 134.047 52.7445 134.044 49.9381 134.04 47.1318 136.312 44.8538 139.119 44.8502 141.925 44.8466 144.203 47.1186 144.206 49.925 144.206 49.9294 144.206 49.9337 144.206 49.9381 144.185 52.7265 141.92 54.9765 139.132 54.98Z" fill="#00FFAA" fill-rule="nonzero" fill-opacity="1" transform="matrix(1.00123 0 0 1 370.843 188.116)"/></g></g></g></g></svg>