<svg xmlns="http://www.w3.org/2000/svg" xmlns:xlink="http://www.w3.org/1999/xlink" width="500" zoomAndPan="magnify" viewBox="0 0 375 374.999991" height="500" preserveAspectRatio="xMidYMid meet" version="1.0"><defs><clipPath id="dc9e51fa5f"><path d="M 9.023438 141.0625 L 366 141.0625 L 366 233.9375 L 9.023438 233.9375 Z M 9.023438 141.0625 " clip-rule="nonzero"/></clipPath><clipPath id="b37fa57fee"><path d="M 26.273438 141.0625 L 348.726562 141.0625 C 353.300781 141.0625 357.691406 142.878906 360.925781 146.113281 C 364.160156 149.351562 365.976562 153.738281 365.976562 158.3125 L 365.976562 216.6875 C 365.976562 221.261719 364.160156 225.648438 360.925781 228.886719 C 357.691406 232.121094 353.300781 233.9375 348.726562 233.9375 L 26.273438 233.9375 C 21.699219 233.9375 17.308594 232.121094 14.074219 228.886719 C 10.839844 225.648438 9.023438 221.261719 9.023438 216.6875 L 9.023438 158.3125 C 9.023438 153.738281 10.839844 149.351562 14.074219 146.113281 C 17.308594 142.878906 21.699219 141.0625 26.273438 141.0625 Z M 26.273438 141.0625 " clip-rule="nonzero"/></clipPath><clipPath id="d1c30c983e"><path d="M 269 173 L 309 173 L 309 224.171875 L 269 224.171875 Z M 269 173 " clip-rule="nonzero"/></clipPath><clipPath id="a5434e0a25"><path d="M 314 173 L 353.492188 173 L 353.492188 211 L 314 211 Z M 314 173 " clip-rule="nonzero"/></clipPath><clipPath id="2bdc065724"><path d="M 21.242188 150.671875 L 121 150.671875 L 121 210 L 21.242188 210 Z M 21.242188 150.671875 " clip-rule="nonzero"/></clipPath></defs><g clip-path="url(#dc9e51fa5f)"><g clip-path="url(#b37fa57fee)"><path fill="#020b5a" d="M 9.023438 141.0625 L 366.011719 141.0625 L 366.011719 233.9375 L 9.023438 233.9375 Z M 9.023438 141.0625 " fill-opacity="1" fill-rule="nonzero"/></g></g><path fill="#00ffaa" d="M 175.632812 173.277344 C 170.742188 173.277344 167.46875 174.90625 164.488281 179.042969 C 164.421875 179.136719 164.339844 179.203125 164.238281 179.25 C 164.136719 179.300781 164.03125 179.320312 163.917969 179.3125 C 163.808594 179.304688 163.707031 179.269531 163.613281 179.210938 C 163.519531 179.148438 163.445312 179.070312 163.394531 178.96875 C 161.027344 174.597656 157.15625 173.351562 153.539062 173.351562 C 150.714844 173.351562 146.976562 174.15625 144.683594 177.410156 C 144.464844 177.964844 144.289062 178.535156 144.15625 179.117188 L 144.035156 179.558594 C 143.984375 179.75 143.859375 179.84375 143.660156 179.84375 C 143.628906 179.84375 143.597656 179.84375 143.5625 179.84375 C 143.460938 179.8125 143.382812 179.753906 143.328125 179.660156 C 143.273438 179.566406 143.261719 179.46875 143.285156 179.367188 L 143.410156 178.933594 L 143.410156 178.902344 C 143.796875 177.617188 143.875 176.3125 143.640625 174.992188 L 143.492188 174.152344 L 134.449219 174.152344 L 134.449219 209.527344 L 144.777344 209.527344 L 144.777344 190.617188 C 144.777344 186.601562 147.070312 182.808594 151.164062 182.808594 C 155.402344 182.808594 157.261719 185.890625 157.261719 190.546875 L 157.261719 209.527344 L 167.453125 209.527344 L 167.453125 190.546875 C 167.453125 186.53125 169.886719 183.019531 173.976562 183.019531 C 178.136719 183.019531 179.359375 185.960938 179.359375 190.40625 L 179.359375 209.527344 L 189.769531 209.527344 L 189.769531 190.1875 C 189.769531 177.003906 183.027344 173.277344 175.632812 173.277344 Z M 175.632812 173.277344 " fill-opacity="1" fill-rule="nonzero"/><path fill="#00ffaa" d="M 224.363281 174.136719 L 224.332031 174.488281 C 224.210938 176.015625 224.378906 177.511719 224.835938 178.972656 C 224.894531 179.179688 224.945312 179.371094 224.980469 179.546875 C 225.003906 179.652344 224.988281 179.75 224.929688 179.839844 C 224.871094 179.929688 224.789062 179.984375 224.683594 180.007812 C 224.65625 180.011719 224.628906 180.011719 224.601562 180.007812 C 224.394531 180.007812 224.269531 179.90625 224.226562 179.703125 C 223.964844 178.515625 223.433594 177.464844 222.632812 176.546875 C 222.554688 176.453125 222.46875 176.359375 222.382812 176.273438 L 222.382812 176.25 C 220.210938 174.347656 216.96875 173.328125 213.550781 173.328125 C 203.074219 173.183594 194.972656 180.0625 194.972656 191.8125 C 194.972656 203.492188 202.652344 210.367188 213.261719 210.296875 C 216.296875 210.234375 220.605469 209.113281 223.207031 206.308594 C 223.757812 205.585938 224.15625 204.785156 224.40625 203.910156 C 224.433594 203.808594 224.496094 203.730469 224.589844 203.679688 C 224.679688 203.628906 224.777344 203.617188 224.882812 203.644531 C 224.984375 203.675781 225.0625 203.738281 225.113281 203.828125 C 225.167969 203.921875 225.179688 204.019531 225.152344 204.121094 L 225.109375 204.277344 C 224.632812 205.996094 224.507812 207.742188 224.734375 209.511719 L 234.058594 209.511719 L 234.058594 174.136719 Z M 214.605469 201.148438 C 209.441406 201.148438 205.277344 197.710938 205.277344 191.835938 C 205.277344 185.957031 209.441406 182.445312 214.605469 182.445312 C 220.773438 182.445312 224 187.101562 224 192.195312 C 224 196.636719 220.414062 201.148438 214.605469 201.148438 Z M 214.605469 201.148438 " fill-opacity="1" fill-rule="nonzero"/><path fill="#00ffaa" d="M 261.332031 173.351562 C 258.066406 173.351562 255.324219 173.945312 253.148438 176.367188 C 252.378906 177.226562 251.910156 178.226562 251.738281 179.371094 C 251.71875 179.472656 251.710938 179.574219 251.707031 179.679688 C 251.71875 179.792969 251.6875 179.894531 251.609375 179.976562 C 251.53125 180.0625 251.4375 180.105469 251.320312 180.105469 C 251.207031 180.105469 251.109375 180.0625 251.035156 179.976562 C 250.957031 179.894531 250.921875 179.792969 250.933594 179.679688 C 250.941406 179.402344 250.976562 179.128906 251.039062 178.859375 C 251.367188 177.378906 251.386719 175.894531 251.097656 174.410156 L 251.058594 174.207031 L 241.457031 174.207031 L 241.457031 209.527344 L 251.785156 209.527344 L 251.785156 191.117188 C 251.785156 185.824219 255.59375 182.949219 260.039062 182.949219 C 262.121094 182.917969 264.007812 183.515625 265.691406 184.742188 L 269.992188 176.574219 C 267.503906 174.347656 264.703125 173.351562 261.332031 173.351562 Z M 261.332031 173.351562 " fill-opacity="1" fill-rule="nonzero"/><g clip-path="url(#d1c30c983e)"><path fill="#00ffaa" d="M 299.707031 174.207031 L 299.597656 174.992188 C 299.390625 176.523438 299.464844 178.042969 299.820312 179.546875 C 299.84375 179.652344 299.824219 179.746094 299.765625 179.839844 C 299.707031 179.929688 299.628906 179.984375 299.523438 180.007812 C 299.496094 180.011719 299.46875 180.011719 299.441406 180.007812 C 299.234375 180.007812 299.109375 179.90625 299.066406 179.703125 C 298.839844 178.675781 298.339844 177.796875 297.574219 177.074219 C 294.582031 174.25 291.101562 173.542969 287.296875 173.542969 C 276.890625 173.542969 269.789062 180.851562 269.789062 191.890625 C 269.789062 203.355469 277.039062 210.304688 287.453125 210.304688 C 290.785156 210.304688 294.644531 209.269531 297.574219 206.386719 C 298.304688 205.671875 298.75 204.808594 298.90625 203.800781 C 298.921875 203.695312 298.972656 203.609375 299.058594 203.546875 C 299.148438 203.480469 299.242188 203.457031 299.347656 203.476562 C 299.453125 203.492188 299.539062 203.542969 299.601562 203.628906 C 299.667969 203.714844 299.691406 203.808594 299.675781 203.914062 C 299.640625 204.113281 299.601562 204.332031 299.546875 204.5625 C 298.863281 207.558594 298.539062 210.59375 298.570312 213.664062 L 298.570312 220.664062 L 308.972656 224.171875 L 308.972656 174.207031 Z M 288.96875 201.003906 C 284.195312 201.046875 280.359375 197.082031 280.199219 192.3125 C 280.023438 187.023438 283.199219 182.808594 288.875 182.808594 C 293.539062 182.808594 298.414062 185.167969 298.414062 191.90625 C 298.398438 197.8125 293.660156 200.960938 288.957031 201.003906 Z M 288.96875 201.003906 " fill-opacity="1" fill-rule="nonzero"/></g><g clip-path="url(#a5434e0a25)"><path fill="#00ffaa" d="M 333.777344 173.351562 C 322.019531 173.351562 314.410156 181.230469 314.410156 191.90625 C 314.410156 202.578125 321.800781 210.316406 333.777344 210.316406 C 345.835938 210.316406 353.207031 202.582031 353.207031 191.90625 C 353.207031 181.230469 345.628906 173.351562 333.777344 173.351562 Z M 333.777344 201.148438 C 327.535156 201.148438 324.882812 196.347656 324.882812 191.90625 C 324.882812 187.460938 327.605469 182.589844 333.777344 182.589844 C 340.015625 182.589844 342.746094 187.464844 342.746094 191.90625 C 342.746094 196.5625 340.085938 201.148438 333.777344 201.148438 Z M 333.777344 201.148438 " fill-opacity="1" fill-rule="nonzero"/></g><g clip-path="url(#2bdc065724)"><path fill="#00ffaa" d="M 111.3125 179.25 C 110.121094 178.695312 109.070312 177.945312 108.15625 177 C 107.246094 176.054688 106.539062 174.976562 106.03125 173.765625 C 105.515625 172.566406 104.867188 171.441406 104.078125 170.398438 C 103.289062 169.355469 102.390625 168.421875 101.375 167.597656 C 100.355469 166.777344 99.257812 166.085938 98.074219 165.53125 C 96.890625 164.976562 95.65625 164.570312 94.371094 164.316406 C 93.222656 164.105469 92.316406 163.515625 91.660156 162.550781 L 88.011719 157.039062 L 84.792969 157.039062 L 84.792969 157.964844 C 84.792969 158.261719 84.714844 158.539062 84.554688 158.792969 C 84.394531 159.046875 84.179688 159.234375 83.90625 159.363281 C 83.636719 159.492188 83.351562 159.535156 83.054688 159.496094 C 82.757812 159.460938 82.496094 159.34375 82.265625 159.152344 C 67.8125 146.765625 50.433594 149.710938 40.085938 156.9375 C 32.675781 161.988281 26.542969 168.277344 21.6875 175.808594 C 21.574219 175.988281 21.519531 176.183594 21.527344 176.398438 C 21.535156 176.609375 21.605469 176.800781 21.734375 176.96875 C 21.863281 177.140625 22.027344 177.257812 22.230469 177.324219 C 22.433594 177.390625 22.636719 177.390625 22.839844 177.332031 L 25.6875 176.457031 C 25.773438 176.429688 25.863281 176.425781 25.949219 176.445312 C 26.039062 176.464844 26.117188 176.507812 26.183594 176.566406 C 26.25 176.628906 26.296875 176.703125 26.324219 176.789062 C 26.351562 176.875 26.351562 176.964844 26.332031 177.050781 C 23.929688 188.792969 26.6875 200.085938 36.578125 209.84375 L 50.503906 209.84375 C 50.089844 197.425781 69.683594 197.425781 69.269531 209.84375 L 83.195312 209.84375 C 84.597656 208.539062 85.886719 207.128906 87.058594 205.609375 C 88.582031 203.617188 91.519531 203.546875 93.289062 205.320312 C 102.40625 214.496094 120.933594 208.742188 120.707031 193.859375 C 120.710938 193.09375 120.65625 192.332031 120.546875 191.574219 C 120.441406 190.8125 120.277344 190.066406 120.0625 189.332031 C 119.847656 188.597656 119.582031 187.882812 119.261719 187.183594 C 118.945312 186.488281 118.578125 185.816406 118.164062 185.171875 C 117.75 184.527344 117.292969 183.914062 116.789062 183.335938 C 116.285156 182.757812 115.746094 182.21875 115.164062 181.71875 C 114.585938 181.214844 113.972656 180.757812 113.328125 180.34375 C 112.679688 179.933594 112.007812 179.566406 111.3125 179.25 Z M 92.78125 178.496094 C 92.40625 178.496094 92.046875 178.425781 91.699219 178.28125 C 91.355469 178.140625 91.050781 177.9375 90.785156 177.671875 C 90.519531 177.40625 90.316406 177.101562 90.171875 176.753906 C 90.027344 176.410156 89.957031 176.050781 89.957031 175.675781 C 89.957031 175.300781 90.027344 174.941406 90.171875 174.59375 C 90.316406 174.25 90.519531 173.945312 90.785156 173.679688 C 91.050781 173.414062 91.355469 173.210938 91.699219 173.066406 C 92.046875 172.925781 92.40625 172.851562 92.78125 172.851562 C 93.15625 172.851562 93.519531 172.925781 93.863281 173.066406 C 94.210938 173.210938 94.515625 173.414062 94.78125 173.679688 C 95.046875 173.945312 95.25 174.25 95.394531 174.59375 C 95.535156 174.941406 95.609375 175.300781 95.609375 175.675781 C 95.609375 176.050781 95.535156 176.410156 95.394531 176.753906 C 95.25 177.101562 95.046875 177.40625 94.78125 177.671875 C 94.515625 177.9375 94.210938 178.140625 93.863281 178.28125 C 93.519531 178.425781 93.15625 178.496094 92.78125 178.496094 Z M 92.78125 178.496094 " fill-opacity="1" fill-rule="nonzero"/></g></svg>